<?xml version="1.0" encoding="UTF-8"?><svg id="Layer_2" xmlns="http://www.w3.org/2000/svg" viewBox="0 0 512 512"><defs><style>.cls-1{fill:#fff;}.cls-2{fill:#ffec00;}.cls-3{fill:#1d244b;}</style></defs><circle class="cls-1" cx="256" cy="256" r="256"/><g><path class="cls-3" d="M294.21129,110.38821l-153.15969,115.3153v129.46765l-3.56429,1.88698c-26.41769,13.83783-49.16626,25.36937-70.55201,25.36937h-2.9353v19.18427h2.9353c26.10319,0,52.41605-13.41852,79.46273-27.57085,31.44963-16.14415,66.77805-34.48977,107.03358-34.48977,26.35641,1.98058,52.06987,9.10341,75.68877,20.96642,31.44963,13.41852,64.68141,27.36118,109.65439,23.58722,9.22524,0,9.22524-8.49139,9.22524-15.72481V224.96968l-153.78871-114.58146Z"/><path class="cls-2" d="M336.56345,342.80097c27.57083,11.7412,55.98034,23.69206,92.35707,22.64373V234.71907l-.31448-.83865-134.28991-99.48566-134.08026,100.74365v110.3882c28.81031-15.39673,60.7595-24.00258,93.4054-25.1597,28.8457,1.96032,57.02277,9.58345,82.92219,22.43406Z"/></g></svg>