<?xml version="1.0" encoding="utf-8"?>
<!-- Generator: Adobe Illustrator 26.5.0, SVG Export Plug-In . SVG Version: 6.00 Build 0)  -->
<svg version="1.1" id="Layer_1" xmlns="http://www.w3.org/2000/svg" xmlns:xlink="http://www.w3.org/1999/xlink" x="0px" y="0px"
	 viewBox="0 0 512 512" style="enable-background:new 0 0 512 512;" xml:space="preserve">
<style type="text/css">
	.st0{fill:#FFFFFF;}
	.st1{fill:#1D1D1B;}
</style>
<g id="Layer_2_00000088828905109638553160000009973878375973682582_">
	<path class="st0" d="M256,512L256,512C114.6,512,0,397.4,0,256l0,0C0,114.6,114.6,0,256,0l0,0c141.4,0,256,114.6,256,256l0,0
		C512,397.4,397.4,512,256,512z"/>
</g>
<g id="Layer_1_00000027606326185105242890000004924320103560453507_">
	<g id="Ebene_1">
		<path d="M190.5,343.8c2.9-0.5,4.7-1.3,6.9-1.3c4.7-0.5,7.6-3.2,8.4-7.6c0.8-5.3,2.1-10,2.1-15c0-44.6,0-89.1-0.5-133.4
			c0-0.8,0-2.1,0-2.9c-0.8-8.7-4.5-11.9-13.2-13.2c-2.4-0.5-4.5-0.5-6.9-0.8c0-0.5,0-0.8,0-1.3c0.8-0.5,1.6-1.3,2.4-1.6
			c2.9-0.5,5.5,0,8.4,0c19.5,0,39,0,58-0.5c17.9,0,35.3,0.5,52.5,5.5c36.1,10.8,58.5,40.9,59.3,78.6c0.5,18.7-3.7,36.6-13.2,52.7
			c-13.2,22.9-33.5,36.1-59.3,41.7c-14.8,3.2-29.5,2.9-44,2.1c-17.9-0.8-36.1-2.9-54-1.6C195.2,346.2,192.9,347,190.5,343.8z
			 M227.7,251.8c0,14,0,27.7,0,41.7c0,10,0.8,19.5,1.3,29.5c0.5,6.9,3.7,10.8,10,13.2c1.3,0.5,2.9,0.8,4,1.3
			c18.7,3.7,36.9,4.5,55.1-1.6c21.1-7.1,36.9-20.3,43.8-42.4c4.7-15.8,6.3-32.2,3.7-48.8c-6.3-32.7-25-54.8-56.7-65.1
			c-17.1-5.5-35.1-5.5-52.7-4.5c-1.3,0-2.4,0.5-3.7,0.8c-2.9,0.8-4.5,2.4-4.5,5.5c0,2.1,0,4.5,0,6.3
			C227.1,209.3,227.7,230.4,227.7,251.8z"/>
		<path d="M110.3,345.4c-1.6,0.5-2.4,0.8-3.2,0.8c-18.2,0-36.9,0-55.1,0c-0.5,0-0.8-0.8-1.6-1.3c1.6-2.1,4-2.1,6.1-2.1
			c5.3-0.5,7.9-3.2,8.7-7.9c0.8-3.2,1.3-6.9,1.3-10c0.5-12.7,0.8-25,0.8-37.7c0-30.3,0-60.4-0.5-90.7c0-4.7-0.5-9.5-0.8-14
			c-0.8-7.1-4-10.8-10.8-11.6c-2.1-0.5-4,0-6.1-0.5c-1.3,0-2.1-0.8-3.2-1.3c0-0.5,0-0.8,0-1.3c1.6-0.5,3.7-0.8,5.3-0.8
			c6.3,0,13.2,0.5,19.5,0.5c21.9,0,44,0,65.9-0.5c4,0,7.9-1.3,12.7-2.1c0.8,5.3-1.6,10-1.6,15c0,5.3,0,10.3-3.2,15.6
			c-0.5-1.3-1.3-2.1-1.3-3.2c-0.8-11.1-7.6-15.6-17.4-15.8c-11.1-0.5-22.1-0.5-33.5-0.8c-1.6,0-3.7,0-5.3,0.5
			c-1.6,5.5-1.3,64.3,0.5,69.6c1.6,0,2.9,0.5,4.5,0.5c11.6,0,22.7-0.5,34.3-0.8c6.1,0,12.4,0,16.3-7.1c2.4,4.7,0,8.4,0,12.4
			s-0.5,8.4-1.3,12.4c-0.5,3.7,0.8,7.9-2.4,12.4c-0.8-2.9-1.3-4-1.3-5.5c-1.3-9.2-5.3-14-14.2-14.2c-11.9-0.8-23.7,0-36.6,0
			c0,1.6-0.8,3.7-0.5,5.5c0.5,20.6,0.5,41.4,0.8,61.7c0,3.7,0.5,7.1,1.3,10.3c1.3,6.1,4,8.4,10,9.2c3.2,0.5,6.9,0.8,10,1.3
			C109,343.8,109,344.1,110.3,345.4z"/>
		<path d="M466,344.1c-1.3,0.5-2.4,1.3-3.7,1.3c-17.4,0-35.1,0-52.5,0c-1.3,0-2.4-0.8-3.7-0.8c0-0.5,0-0.8,0-1.3
			c2.1-0.5,4-0.8,6.1-1.3c4.7-0.5,7.6-3.2,8.4-7.6c0.8-5.3,2.1-10,2.1-15c0-44.6,0-88.6-0.5-133.1c0-1.3,0-2.4,0-3.7
			c-0.8-9.2-3.7-11.9-12.7-13.2c-1.6,0-2.9-0.8-4.5-2.1c0.8-0.5,1.6-1.3,2.9-1.3c1.3-0.5,2.4,0,3.7,0c14,0,27.7,0,41.7,0
			c2.1,0,4,0.5,6.1,0.5c-0.8,3.7-2.9,2.9-4.5,2.9c-8.4,1.3-10.8,3.2-11.6,11.6c-0.8,8.7-0.8,17.4-0.8,26.6
			c0,34.5,0.5,69.1,0.5,103.4c0,6.1,0.5,12.4,1.3,18.2c0.8,9.2,3.7,11.9,13.2,12.7c2.4,0.5,5.3,0.8,7.6,1.3
			C465.2,343,465.5,343.3,466,344.1z"/>
	</g>
</g>
<g id="Layer_1_00000011023708050811218120000012037241334328224642_">
	<g id="Ebene_1_00000071554188777857907640000013002208213834302852_">
		<path d="M-502.5,352.2c1.1-0.2,1.8-0.5,2.6-0.5c1.8-0.2,2.9-1.2,3.2-2.9c0.3-2,0.8-3.8,0.8-5.7c0-16.9,0-33.8-0.2-50.6
			c0-0.3,0-0.8,0-1.1c-0.3-3.3-1.7-4.5-5-5c-0.9-0.2-1.7-0.2-2.6-0.3c0-0.2,0-0.3,0-0.5c0.3-0.2,0.6-0.5,0.9-0.6
			c1.1-0.2,2.1,0,3.2,0c7.4,0,14.8,0,22-0.2c6.8,0,13.4,0.2,19.9,2.1c13.7,4.1,22.2,15.5,22.5,29.8c0.2,7.1-1.4,13.9-5,20
			c-5,8.7-12.7,13.7-22.5,15.8c-5.6,1.2-11.2,1.1-16.7,0.8c-6.8-0.3-13.7-1.1-20.5-0.6C-500.7,353.1-501.6,353.4-502.5,352.2z
			 M-488.4,317.3c0,5.3,0,10.5,0,15.8c0,3.8,0.3,7.4,0.5,11.2c0.2,2.6,1.4,4.1,3.8,5c0.5,0.2,1.1,0.3,1.5,0.5
			c7.1,1.4,14,1.7,20.9-0.6c8-2.7,14-7.7,16.6-16.1c1.8-6,2.4-12.2,1.4-18.5c-2.4-12.4-9.5-20.8-21.5-24.7c-6.5-2.1-13.3-2.1-20-1.7
			c-0.5,0-0.9,0.2-1.4,0.3c-1.1,0.3-1.7,0.9-1.7,2.1c0,0.8,0,1.7,0,2.4C-488.6,301.2-488.4,309.2-488.4,317.3z"/>
		<path d="M-532.9,352.8c-0.6,0.2-0.9,0.3-1.2,0.3c-6.9,0-14,0-20.9,0c-0.2,0-0.3-0.3-0.6-0.5c0.6-0.8,1.5-0.8,2.3-0.8
			c2-0.2,3-1.2,3.3-3c0.3-1.2,0.5-2.6,0.5-3.8c0.2-4.8,0.3-9.5,0.3-14.3c0-11.5,0-22.9-0.2-34.4c0-1.8-0.2-3.6-0.3-5.3
			c-0.3-2.7-1.5-4.1-4.1-4.4c-0.8-0.2-1.5,0-2.3-0.2c-0.5,0-0.8-0.3-1.2-0.5c0-0.2,0-0.3,0-0.5c0.6-0.2,1.4-0.3,2-0.3
			c2.4,0,5,0.2,7.4,0.2c8.3,0,16.7,0,25-0.2c1.5,0,3-0.5,4.8-0.8c0.3,2-0.6,3.8-0.6,5.7c0,2,0,3.9-1.2,5.9c-0.2-0.5-0.5-0.8-0.5-1.2
			c-0.3-4.2-2.9-5.9-6.6-6c-4.2-0.2-8.4-0.2-12.7-0.3c-0.6,0-1.4,0-2,0.2c-0.6,2.1-0.5,24.4,0.2,26.4c0.6,0,1.1,0.2,1.7,0.2
			c4.4,0,8.6-0.2,13-0.3c2.3,0,4.7,0,6.2-2.7c0.9,1.8,0,3.2,0,4.7s-0.2,3.2-0.5,4.7c-0.2,1.4,0.3,3-0.9,4.7
			c-0.3-1.1-0.5-1.5-0.5-2.1c-0.5-3.5-2-5.3-5.4-5.4c-4.5-0.3-9,0-13.9,0c0,0.6-0.3,1.4-0.2,2.1c0.2,7.8,0.2,15.7,0.3,23.4
			c0,1.4,0.2,2.7,0.5,3.9c0.5,2.3,1.5,3.2,3.8,3.5c1.2,0.2,2.6,0.3,3.8,0.5C-533.4,352.2-533.4,352.3-532.9,352.8z"/>
		<path d="M-398,352.3c-0.5,0.2-0.9,0.5-1.4,0.5c-6.6,0-13.3,0-19.9,0c-0.5,0-0.9-0.3-1.4-0.3c0-0.2,0-0.3,0-0.5
			c0.8-0.2,1.5-0.3,2.3-0.5c1.8-0.2,2.9-1.2,3.2-2.9c0.3-2,0.8-3.8,0.8-5.7c0-16.9,0-33.6-0.2-50.5c0-0.5,0-0.9,0-1.4
			c-0.3-3.5-1.4-4.5-4.8-5c-0.6,0-1.1-0.3-1.7-0.8c0.3-0.2,0.6-0.5,1.1-0.5c0.5-0.2,0.9,0,1.4,0c5.3,0,10.5,0,15.8,0
			c0.8,0,1.5,0.2,2.3,0.2c-0.3,1.4-1.1,1.1-1.7,1.1c-3.2,0.5-4.1,1.2-4.4,4.4c-0.3,3.3-0.3,6.6-0.3,10.1c0,13.1,0.2,26.2,0.2,39.2
			c0,2.3,0.2,4.7,0.5,6.9c0.3,3.5,1.4,4.5,5,4.8c0.9,0.2,2,0.3,2.9,0.5C-398.3,351.9-398.2,352-398,352.3z"/>
		<path class="st1" d="M-587.9,411.2l6.2-2c-1.8-1.4-4.2-2.3-6.9-3c-2.7-0.7-5.7-1.4-8.7-1.7s-6-0.5-8.9-0.5
			c-2.9,0.2-5.4,0.3-7.7,0.8c-2.6,0.6-5.1,1.4-7.7,2.3c-2.4,1.1-4.7,2.3-6.5,3.6c-1.8,1.3-3.2,3-4.2,5c-1.1,1.8-1.2,3.9-0.8,6
			c0.9,3.9,3,7.2,6.3,9.6c3.5,2.4,7.5,4.2,12.1,5.4c4.7,1.2,9.5,1.8,14.8,1.8c5.1,0,9.9-0.5,14.3-1.4c3.3-0.8,6.9-2,10.5-3.6
			c3.6-1.6,6.9-3.8,9.8-6c2.9-2.4,5.1-5.1,6.8-8c1.7-2.9,2.1-5.9,1.5-9c-0.8-3.6-2.4-7.1-4.8-10.5c-2.4-3.3-5.4-6.6-8.7-9.8
			c-3.3-3.2-6.9-6-10.7-8.7c-3.8-2.7-7.4-5.3-10.8-7.5c-4.1-2.7-7.5-5.3-10.4-7.5c-2.9-2.3-4.4-4.1-4.7-5.7
			c-0.6-2.9,1.1-4.7,4.8-5.6c3.3-0.8,6.8-0.6,10.2,0.2c3.5,0.8,6.9,2.1,10.4,3.8c3.3,1.7,6.5,3.5,9.5,5.6c2.9,2,5.4,3.9,7.5,5.7
			l-0.9,1.1c-2.1-1.8-4.5-3.6-7.4-5.6c-2.9-2-5.9-3.8-9.2-5.4c-3.3-1.7-6.6-2.9-10.1-3.6c-3.5-0.9-6.8-0.9-9.9-0.3
			c-2.9,0.6-4.1,2-3.8,3.9c0.3,1.2,1.8,3,4.5,5.1c2.7,2.1,6.2,4.5,10.1,7.4c3.5,2.4,7.1,5,11,7.8c3.9,2.7,7.5,5.7,10.8,8.9
			c3.3,3.2,6.3,6.5,8.7,9.9c2.6,3.5,4.2,7.1,5,10.8c0.8,3.3,0.2,6.6-1.5,9.6c-1.7,3.2-4.1,5.9-7.1,8.4c-3,2.6-6.5,4.7-10.2,6.5
			c-3.8,1.8-7.4,3-11,3.8c-4.5,0.9-9.5,1.4-14.8,1.4c-5.4,0-10.4-0.8-15.2-2c-4.8-1.2-9-3.2-12.5-5.7c-3.6-2.6-5.7-5.9-6.6-10.1
			c-0.5-2.4-0.3-4.7,0.8-6.6c1.1-2,2.6-3.8,4.5-5.3c2-1.5,4.4-2.9,6.9-3.9c2.6-1.1,5.3-1.8,8-2.4c2.6-0.6,5.6-0.9,8.7-1.1
			c3.2-0.2,6.5,0,9.6,0.6c3.2,0.5,6.3,1.2,9.2,2.3c2.9,1.1,5.3,2.3,7.2,4.1l-8.1,2.9L-587.9,411.2z"/>
		<path class="st1" d="M-540.1,399.5c0.3,0.2,0.8,0.5,1.4,0.6c0.5,0.2,1.2,0.2,2,0.2s1.8-0.2,3.2-0.5c1.4-0.3,2.4-1.1,3.3-2.1
			c0.8-1.1,1.1-2.1,0.9-2.9c-0.2-0.9-0.8-1.5-1.5-1.7c-0.8-0.2-1.8-0.2-3,0c-0.5,0.2-1.2,0.5-2.1,1.2c-1.1,0.8-2,1.7-2.7,3
			c-0.9,1.4-1.5,3-2,5s-0.5,4.1,0.2,6c1.2,6.3,6,8.9,14.5,7.5c12.8-2.7,26.1-11.9,39.9-27.6l1.1,0.9c-13.7,16-27.3,25.3-40.7,28
			c-9.3,1.8-14.8-1.2-16.3-8.6c-0.5-2.3-0.5-4.5,0.2-6.8c0.5-2.3,1.2-4.1,2.3-5.4c0.9-1.5,2-2.6,3.2-3.3c1.1-0.8,2-1.2,2.6-1.4
			c1.5-0.3,2.9-0.3,3.9,0c1.1,0.3,1.8,1.2,2.1,2.7c0.3,1.1-0.2,2.4-1.1,3.9c-0.9,1.5-2.4,2.4-4.2,2.7c-1.5,0.3-2.7,0.5-3.6,0.5
			c-0.9,0-1.7,0-2.3-0.2c-0.8-0.3-1.4-0.5-1.7-0.8L-540.1,399.5z"/>
		<path class="st1" d="M-441,379.7c-2-0.6-4.2-1.1-6.8-1.4c-2.3-0.3-5-0.5-8.1-0.3c-3.2,0-6.8,0.5-10.8,1.4c-3.8,0.8-7.1,2-10.1,3.6
			s-5.6,3.6-7.7,5.7c-2.1,2.1-3.6,4.4-4.7,6.8c-0.9,2.4-1.2,4.7-0.8,6.8c0.5,2,2,3.3,4.8,3.8c2.7,0.5,6,0.5,9.6-0.5
			c3.2-0.6,6.5-1.8,9.8-3.3c3.3-1.5,6.3-3.5,9.2-5.9l0.8,0.9c-2.9,2.4-5.9,4.5-9.3,6.2s-6.8,2.7-9.9,3.5c-4.1,0.9-7.7,0.9-10.7,0.2
			s-4.8-2.3-5.4-4.7c-0.5-2.4-0.3-4.8,0.8-7.4c0.9-2.6,2.6-5,4.8-7.2c2.3-2.3,5-4.2,8.1-6c3.2-1.8,6.8-3,10.7-3.9
			c4.1-0.9,7.8-1.4,11-1.4c3.3,0,6.2,0.2,8.4,0.3c2.7,0.3,5.1,0.9,7.2,1.5L-441,379.7z"/>
		<path class="st1" d="M-440.7,378.4c0.3,0.9,0.8,2.6,1.4,5c0.6,2.4,1.2,4.8,1.7,7.2c0.3,1.7,0.6,3.2,0.9,4.8c0.3,1.5,0.5,3,0.6,4.2
			l-1.4,0.3c-0.2-1.4-0.5-2.7-0.6-4.2c-0.3-1.5-0.6-3.2-0.9-4.8c-0.5-2.4-1.1-4.8-1.7-7.2c-0.6-2.4-1.1-4.1-1.4-5L-440.7,378.4z
			 M-400.6,371.6c-1.4-0.5-2.7-0.9-4.2-1.2c-1.4-0.3-2.7-0.5-4.4-0.6c-1.7-0.2-3.3,0-5.1,0.2c-2.3,0.3-4.4,1.4-6.8,2.7
			c-2.3,1.5-4.4,3.5-6.3,5.9c-2,2.4-3.6,5.4-5.3,9c-1.5,3.6-2.7,7.7-3.5,12.1l-1.4,0.3c0.8-5,2-9.3,3.5-13.1
			c1.5-3.8,3.5-6.8,5.4-9.3c2.1-2.6,4.4-4.5,6.6-6c2.4-1.5,4.7-2.6,7.1-2.9c2-0.3,3.8-0.5,5.4-0.2c1.7,0.2,3.3,0.3,4.7,0.6
			c1.5,0.3,3,0.8,4.4,1.4L-400.6,371.6z"/>
		<path class="st1" d="M-400.3,370.2c0.3,0.2,0.8,0.5,1.4,0.6c0.5,0.2,1.2,0.2,2,0.2s1.8-0.2,3.2-0.5s2.4-1.1,3.3-2.1
			c0.8-1.1,1.1-2.1,0.9-2.9c-0.2-0.9-0.8-1.5-1.5-1.7c-0.8-0.2-1.8-0.2-3,0c-0.5,0.2-1.2,0.5-2.1,1.2c-1.1,0.8-2,1.7-2.7,3
			c-0.9,1.4-1.5,3-2,5s-0.5,4.1,0.2,6c1.2,6.3,6,8.9,14.5,7.5c12.8-2.7,26.1-11.9,39.9-27.6l1.1,0.9c-13.7,16-27.3,25.3-40.7,28
			c-9.3,1.8-14.8-1.1-16.3-8.6c-0.5-2.3-0.5-4.5,0.2-6.8c0.5-2.3,1.2-4.1,2.3-5.6c0.9-1.5,2-2.6,3.2-3.3c1.1-0.8,2-1.2,2.6-1.4
			c1.5-0.3,2.9-0.3,3.9,0c1,0.3,1.8,1.2,2.1,2.7c0.3,1.1-0.2,2.4-1.1,3.9s-2.4,2.4-4.2,2.7c-1.5,0.3-2.7,0.5-3.6,0.5s-1.7,0-2.3-0.2
			c-0.8-0.3-1.4-0.5-1.7-0.8L-400.3,370.2z"/>
		<path class="st1" d="M-341.5,329.6c-0.8,4.4-1.4,8.1-1.8,11.6c3.9-1.2,8-2.4,12.1-3.6c6.2-1.8,12.5-3.9,19-6
			c8.7-3,17.2-5.7,25.5-8.3c8.1-2.6,15.7-4.8,22.6-6.9c6.8-2.1,12.8-3.8,17.8-5.1c5-1.4,8.7-2.3,11.2-2.7l0.3,1.4
			c-2.4,0.5-6.2,1.4-11,2.6c-4.8,1.4-10.7,3-17.5,5s-14.2,4.4-22.5,6.9c-8.1,2.6-16.7,5.4-25.8,8.4c-6.6,2.3-13,4.2-19.1,6.2
			c-4.5,1.4-8.7,2.7-12.8,3.8c-0.2,0.9-0.2,1.8-0.3,2.6c-0.5,4.4-0.9,9-1.2,13.9c-0.3,4.8,0,9.2,0.8,12.8c0.5,2.4,1.4,4.4,2.7,5.7
			s3,1.8,5.1,1.4c2-0.5,4.2-1.5,6.5-3c2.4-1.7,4.8-3.8,7.2-6.3c2.4-2.6,4.8-5.6,7.2-8.9s4.7-6.6,6.8-9.6l1.2,0.6
			c-2.1,3.2-4.4,6.5-6.9,9.9c-2.6,3.5-5.1,6.5-7.5,9c-2.6,2.6-5,4.8-7.4,6.5s-4.7,2.7-6.8,3.2c-2.4,0.5-4.5,0-6.2-1.5
			s-2.7-3.8-3.3-6.6c-0.8-3.6-1.1-8-0.8-13.1c0.3-5.1,0.8-9.8,1.2-14c0-0.6,0.2-1.4,0.2-1.8c-0.9,0.3-2,0.6-3,0.8
			c-5.3,1.5-10.1,2.7-14.5,3.8c-4.4,1.1-8,2-11,2.6l-3.5,0.8c-1.1,0.2-2,0.3-2.7,0.5l-0.3-1.4c0.8,0,1.7-0.2,2.7-0.5l3.5-0.8
			c3-0.6,6.6-1.5,11-2.6c4.4-1.1,9.2-2.4,14.5-3.8c1.2-0.3,2.3-0.6,3.5-1.1c0.5-3.5,1.1-7.5,1.8-12.2L-341.5,329.6z"/>
		<path class="st1" d="M-304.6,341.3c-1.1,0.2-2,0.6-2.7,1.2c-0.6,0.5-1.2,1.1-1.7,1.8c-0.5,0.8-0.6,1.8-0.3,3
			c0.5,2.4,3.2,6,8.1,10.8c5,5,7.7,8.9,8.3,11.8c0.2,1.1,0,1.8-0.6,2.6c-0.6,0.8-2,1.2-3.9,1.4c-1.1,0.2-2.3,0.2-3.6,0
			c-1.4-0.2-2.7-0.3-3.9-0.5c-1.4-0.3-2.4-0.5-3.3-0.8s-2.1-0.8-3.5-1.2l0.6-1.2c2.1,0.8,4.4,1.5,6.8,2c2.4,0.6,4.7,0.6,6.8,0.5
			c2.6-0.5,3.8-1.2,3.5-2.3c-0.5-2.4-3.3-6.2-8.3-11.2c-5-5-7.7-8.9-8.3-11.5c-0.3-1.5-0.2-2.7,0.3-3.6c0.6-0.9,1.2-1.7,2.1-2.4
			c0.9-0.6,2-1.2,3.3-1.5L-304.6,341.3z"/>
	</g>
</g>
</svg>
