<?xml version="1.0" encoding="UTF-8"?><svg id="Layer_1" xmlns="http://www.w3.org/2000/svg" viewBox="0 0 512 512"><defs><style>.cls-1{fill:#92094c;}</style></defs><path class="cls-1" d="M175.24778,220.08869c0-4.82971,6.5661-8.73528,14.66488-8.73528,8.09597,0,14.66215,3.90558,14.66215,8.73528,0,4.82689-6.56618,8.7381-14.66215,8.7381-8.09878,0-14.66488-3.9112-14.66488-8.7381"/><path class="cls-1" d="M139.25975,257.19288s-3.3305,5.55549-10.27351,4.16526c-3.5092-.70074-6.79787-4.32441-6.79787-8.61524v-24.91053c0-4.64261,3.8833-8.39194,8.60689-8.24949,5.34336,.15625,12.211,6.24508,12.211,6.24508l4.58119-5.68959s-11.79503-14.71514-31.64693-13.18808c-17.7665,1.37073-30.75918,15.90449-30.81222,33.72956-.05862,18.1127,13.62637,32.1495,31.64416,34.01156,10.82907,1.09989,22.60451-6.66944,22.60451-6.66944l.02513,2.92011h25.67269v-39.9858h-25.81506v26.23661Z"/><path class="cls-1" d="M497.18943,230.52782c-9.19875-1.39032-19.0116,3.64599-19.0116,3.64599l.10045-23.28855h-25.64475v43.58714c0,4.31597-3.5901,8.15186-8.53422,7.02957-3.23841-.74257-5.44108-3.23559-5.44108-6.56337v-13.58731h8.7939v-10.40471h-8.61805v-20.06131h-25.22874v19.89944h-9.14849v10.56658h9.14849v13.89998c.10607,4.03406-4.59797,6.8481-8.54828,6.07485-3.10158-.61146-5.6113-2.68846-5.6113-5.84593v-24.69549h-25.58895l-.03629,3.29702s-14.21547-9.89106-27.62404,.03348c-10.25119,7.58786-7.30313,22.47612-7.30313,22.47612,0,0-1.67224,4.63708-13.04572,4.91064-3.64599,.08656-11.49352-.68958-11.11389-5.8375,0,0-.5974-14.29921,1.05252-14.20984,1.5522,.08929,4.6007,9.02845,4.6007,9.02845l14.02565-8.41708s-.96877-5.10327-2.67168-7.8587c-2.21102-3.60688-5.01671-5.37965-5.01671-5.37965,0,0-5.94638,3.90285-11.45723,6.1195-.96868,.38798-.5974-3.98941-.5974-3.98941h-25.21485v29.18467s-3.10993,2.10776-5.33501,2.0575c-3.5371-.10888-7.02675-2.19986-7.02675-5.73424l-.02505-45.23143h-25.01106v48.7267s-3.50916,4.22941-9.65933,1.10551c-2.51262-1.26747-2.91738-3.94468-2.91738-6.83412l.01397-43.17112h-24.70111v49.08121s-4.59243,3.78281-9.15684,.70909c-2.27807-1.52706-3.55389-3.34166-3.55389-6.09155l.00554-23.97524h-24.91606v26.69437c0,3.88053,1.85652,7.16077,4.64261,9.62031,3.34729,2.95922,8.03735,4.7152,12.5181,4.89105,11.09429,.44387,17.42311-2.77212,20.3572-4.89105,1.39032-1.01622,2.02683-1.78393,2.02683-1.78393,0,0,.89891,.76771,2.44275,1.78393,3.19649,2.09933,9.12889,5.30144,15.51079,5.06417,9.08144-.33499,14.44993-3.2189,16.99875-5.06417v-.00562c1.24515-.91007,1.8146-1.57171,1.8146-1.57171,0,0-.79003-.25968,.71753,.64766,3.28586,1.99607,11.30924,6.06361,18.60402,5.9687,7.01278-.0921,12.85581-3.00386,16.10265-5.03903,1.73366-1.10278,2.71913-1.93464,2.71913-1.93464,.70628,.40758,.20652,.2791,3.76875,1.93464,4.584,2.12446,12.68278,5.1647,20.57223,4.54771,7.36456-.57235,13.06242-2.54048,17.13277-4.54771,5.10327-2.53213,7.60464-5.13122,7.60464-5.13122,1.14743,1.23671,.22057,.96315,5.69513,5.13122,0,0,5.13957,4.77663,12.60738,4.62583,7.45947-.15906,12.99826-4.62583,12.99826-4.62583,2.20267-1.68067,3.2551-3.17417,3.2551-3.17417,0,0,1.59411,1.50193,4.20155,3.17417,3.17417,2.00723,7.83075,4.24338,13.00942,4.28249,8.65716,.08375,14.10377-2.16357,17.33656-4.28249v-.01116c2.86993-1.89843,3.97544-3.70187,3.97544-3.70187,2.14687,2.01285,1.86206,1.77277,5.16189,3.71303,3.32496,1.92902,7.96758,3.93906,13.26629,4.14847,6.42646,.25687,11.80338-1.99053,15.42977-4.14847h.01397c3.19649-1.89562,5.02234-3.71303,5.02234-3.71303v6.7951h25.72006v-22.74415c0-2.8839,1.07203-6.35677,3.95593-6.25351,2.66052,.0754,3.96419,2.88944,3.96419,5.5388v23.45886h25.22039v-22.5683c0-8.7018-3.6125-15.45772-14.34939-17.08531m-123.10369,25.32927c0,3.26073-2.1524,5.90446-4.82971,5.90446-2.65208,0-4.8073-2.64373-4.8073-5.90446v-10.67274c0-3.25519,2.15522-5.8933,4.8073-5.8933,2.6773,0,4.82971,2.63811,4.82971,5.8933v10.67274Z"/><path class="cls-1" d="M19.83914,185.9334c-10.76765,0-19.49458,8.72694-19.49458,19.49458,0,9.34947,6.58569,17.15236,15.36562,19.0479l2.1887-27.92555h3.87214l2.19428,27.92555c8.77997-1.89554,15.36843-9.69843,15.36843-19.0479,0-10.76765-8.7297-19.49458-19.49458-19.49458"/><path class="cls-1" d="M7.27249,313.16606c.69793-2.39811,1.44055-4.95529,2.47905-7.19144,1.03573-2.26129,1.35957-4.37748,1.7225-7.36183,.37687,2.96203,.4662,5.94084,.15634,8.61252-.32664,2.68284,.22892,4.44436,.45227,6.53815,.10326,.96596,.25124,1.90959,.42151,2.82801,.32664-.70066,.65606-1.41256,.97435-2.09933,1.03292-2.2641,1.71411-4.90783,2.07701-7.89218,.30709,2.43159,.36575,4.75703,.22892,6.996,.64213-1.61362,1.36515-3.20765,2.07705-4.74033,1.03573-2.26682,1.71692-4.90783,2.07705-7.89499,.37687,2.96765,.47459,5.80682,.1675,8.47569-.32664,2.68284-.57231,4.89667-.35178,6.99046,.17031,1.60246,.46901,3.12952,.83194,4.59516,.19821-.79003,.39365-1.56617,.62257-2.37298,.69793-2.39803,1.8788-4.73752,2.91734-6.97368,1.03573-2.26691,1.71411-4.90783,2.07705-7.89499,.37687,2.96757,.47459,5.80401,.1675,8.47569-.05585,.44106-.0754,.79284-.12285,1.20323,.67561-1.78112,1.47684-3.54273,2.2641-5.22894,1.03292-2.26682,1.71411-4.91064,2.07705-7.89499,.37687,2.96484,.47459,5.80401,.16468,8.47569-.32383,2.68284-.57231,4.89386-.34896,6.98765,.13683,1.30376,.36294,2.55445,.62815,3.76884,.2066-.43552,.41039-.88494,.6086-1.31492,1.03573-2.26682,1.71688-4.90783,2.07982-7.89499,.3741,2.96484,.47459,5.80401,.16473,8.47569-.32383,2.68284-.57231,4.89386-.34896,6.98765,.00558,.08375,.02232,.1675,.03629,.24571,3.4701-3.53157,5.6225-8.36962,5.6225-13.71851,0-10.82073-8.77435-19.59512-19.59788-19.59512S.00007,301.52736,.00007,312.34809c0,5.12559,2.01004,9.74589,5.22608,13.23835,.05027-4.31597,.84592-8.20212,2.04634-12.42038"/><path class="cls-1" d="M19.94185,239.17458c-10.82349,0-19.59507,8.7772-19.59507,19.59793,0,10.82626,8.77158,19.60065,19.59507,19.60065s19.6007-8.77439,19.6007-19.60065c0-10.82073-8.77716-19.59793-19.6007-19.59793m13.72691,24.39406l-22.87812,3.21327-4.57007-2.48186,.01955-9.31871,22.87812-3.21327,4.57007,2.48459-.01955,9.31598Z"/><path class="cls-1" d="M94.34376,322.45665c.16468,.04183,.04187,1.64148-.04187,1.64148h-8.56779c-.12285,0-.24571-1.55773-.12285-1.59965l2.50137-1.14734v-13.69619l-2.70797-.4495c-.16192-.04183-.03906-1.68059,.04187-1.68059h5.29032l4.87716-.16468c4.59235-.16477,7.58509,1.5159,7.58509,5.86254,0,2.29485-.94083,4.75712-4.14013,5.53598l3.6488,5.08376,2.62418,.61418c.16473,.04183,.04187,1.64148-.04187,1.64148h-9.05912c-.08375,0-.2066-1.59965-.04187-1.64148l1.88719-.57235-3.48684-5.12559c-1.10551-.24562-1.92629-.57508-1.92629-.57508v5.65884l1.68063,.61418Zm-1.68063-8.07646h2.0491c2.21383,0,4.10106-.49133,4.10106-3.40309,0-2.54329-1.27024-3.28032-3.60692-3.23841l-2.54324,.03911v6.60239Z"/><path class="cls-1" d="M112.14459,307.57342l-2.70516-.41039c-.16473-.03911-.04187-1.63876,.03906-1.63876h9.92177c.08375,0,.2066,1.59965,.04187,1.63876l-2.70516,.41039v5.90446h7.46224v-5.90446l-2.70793-.41039c-.16196-.03911-.03911-1.63876,.04187-1.63876h9.92173c.08379,0,.2066,1.59965,.04192,1.63876l-2.7052,.41039v14.47225l2.7052,.41039c.16468,.04192,.04187,1.64157-.04192,1.64157h-9.92173c-.08098,0-.20383-1.59965-.04187-1.64157l2.70793-.81797v-5.82352h-7.46224v6.2311l2.70516,.41039c.16473,.04192,.04187,1.64157-.04187,1.64157h-9.63424c-.16468,0-.24566-1.55782-.12281-1.64157l2.50137-1.22836v-13.65428Z"/><path class="cls-1" d="M150.20299,317.70115c.08094-.16468,1.68059,.28754,1.63876,.41039-.08094,1.88438-.36856,4.18196-.77614,5.9854h-14.51693c-.12281,0-.24566-1.59965-.12281-1.63867l2.50137-1.23117v-13.61244l-2.70516-.45222c-.16473-.03911-.04187-1.63876,.04187-1.63876h15.33209c.04192,1.84536-.16187,4.05919-.41039,5.82352,0,.12004-1.84255,.32664-1.88438,.16196l-1.18926-3.8945h-4.59243v5.86263h1.76442l.28473-1.96812c.04192-.12285,1.7225,.04183,1.7225,.16468v6.06923c0,.12277-1.18926,.32656-1.22836,.20379l-.73976-2.172h-1.80353v6.15017h4.42766l2.25575-4.22387Z"/><path class="cls-1" d="M167.76565,305.52367c.08094,0,.20379,1.59965,.04192,1.63876l-3.52594,.53325v14.43314l3.52594,.41039c.16187,0,.03902,1.55782-.04192,1.55782h-11.27576c-.12285,0-.24571-1.51599-.12285-1.55782l3.32215-1.27019v-13.53151l-3.52594-.53325c-.16468-.04183-.04183-1.68059,.03911-1.68059h11.5633Z"/><path class="cls-1" d="M183.46294,307.16388c-.16468-.04192-.04192-1.63876,.04192-1.63876h10.12552c.08375,0,.2066,1.59684,.04192,1.63876l-2.70525,.49133v14.34948l2.70525,.45222c.16468,.04192,.04183,1.64157-.04192,1.64157h-5.08368l-10.45506-11.85084h-.24562v9.75705l4.75703,.45222c.16196,.04192,.03911,1.64157-.04183,1.64157h-9.84079c-.12285,0-.24571-1.59965-.12285-1.64157l2.50137-1.27019v-13.53151l-2.70516-.49133c-.16468-.04192-.04192-1.63876,.03911-1.63876h5.70067l9.79896,11.3958h.28754v-9.26572l-4.75712-.49133Z"/><path class="cls-1" d="M209.88153,305.52367c.08094,0,.20379,1.59965,.04192,1.63876l-3.52594,.53325v14.43314l3.52594,.41039c.16187,0,.03902,1.55782-.04192,1.55782h-11.27576c-.12285,0-.24571-1.51599-.12285-1.55782l3.32215-1.27019v-13.53151l-3.52594-.53325c-.16468-.04183-.04183-1.68059,.03911-1.68059h11.5633Z"/><path class="cls-1" d="M214.38153,310.27968c0-2.95087,2.172-5.32938,6.192-5.32938,1.92629,0,3.11564,.53325,4.18204,1.4768l1.22836-2.09379c.08375-.12285,1.80625,.32945,1.80625,.49414l-.78168,6.47681c0,.16468-2.33669,.28754-2.41762,.12285l-.77895-1.63876c-.73976-1.55782-1.51863-2.50137-2.91176-2.50137-1.55773,0-2.33669,.98266-2.33669,2.25566,0,3.93633,9.18478,4.01727,9.18478,10.0865,0,2.41762-2.70797,5.12278-6.97095,5.12278-3.48403,0-5.86254-1.76152-6.10825-2.29477-.24562-1.43497-.41039-3.36126-.41039-4.59235,0-.12285,1.47407-.36856,1.55782-.24571l1.5159,3.15747c.49414,1.02457,2.01004,1.59965,3.15738,1.59965,1.68067,0,2.74708-.94364,2.74708-2.21383,0-4.062-8.85533-3.81348-8.85533-9.88271"/><path class="cls-1" d="M249.37353,312.24755c0,.16468-2.17473,.24571-2.25575,.08094l-1.18926-2.33669c-.90172-1.76152-1.92629-2.66324-3.48403-2.66324-2.82801,0-4.83805,1.84527-4.83805,6.96814,0,5.33219,2.33669,7.42317,5.45224,7.42317l6.60239-1.76442c.12285-.03902,.90172,2.13289,.77887,2.17481-2.09098,.94083-5.53598,2.09098-8.03735,2.58231-6.2311,0-10.08642-3.60969-10.08642-9.67611,0-5.00274,3.44492-10.12833,10.0474-10.12833,2.09098,0,3.48403,.36847,4.96082,1.27019l1.14743-1.84527c.08094-.12285,1.80344,.32937,1.80344,.49414l-.90172,7.42036Z"/><path class="cls-1" d="M257.58315,307.57342l-2.70516-.41039c-.16477-.03911-.04192-1.63876,.03911-1.63876h9.92454c.08094,0,.20379,1.59965,.03911,1.63876l-2.70525,.41039v5.90446h7.46228v-5.90446l-2.70516-.41039c-.16468-.03911-.04183-1.63876,.03911-1.63876h9.92454c.08094,0,.20379,1.59965,.03911,1.63876l-2.70516,.41039v14.47225l2.70516,.41039c.16468,.04192,.04183,1.64157-.03911,1.64157h-9.92454c-.08094,0-.20379-1.59965-.03911-1.64157l2.70516-.81797v-5.82352h-7.46228v6.2311l2.70525,.41039c.16468,.04192,.04183,1.64157-.03911,1.64157h-9.637c-.16477,0-.24571-1.55782-.12285-1.64157l2.50137-1.22836v-13.65428Z"/><path class="cls-1" d="M295.64231,317.70115c.08094-.16468,1.68059,.28754,1.63876,.41039-.08094,1.88438-.36856,4.18196-.77614,5.9854h-14.51689c-.12285,0-.24571-1.59965-.12285-1.63867l2.50137-1.23117v-13.61244l-2.70516-.45222c-.16468-.03911-.04192-1.63876,.03911-1.63876h15.33486c.04192,1.84536-.16187,4.05919-.41039,5.82352,0,.12004-1.84527,.32664-1.88438,.16196l-1.18926-3.8945h-4.59243v5.86263h1.76161l.28754-1.96812c.04192-.12285,1.7225,.04183,1.7225,.16468v6.06923c0,.12277-1.18926,.32656-1.23117,.20379l-.73695-2.172h-1.80353v6.15017h4.42766l2.25575-4.22387Z"/><path class="cls-1" d="M310.63775,322.45665c.16477,.04183,.04192,1.64148-.04183,1.64148h-8.56779c-.12285,0-.24571-1.55773-.12285-1.59965l2.50137-1.14734v-13.69619l-2.70797-.4495c-.16187-.04183-.03911-1.68059,.04192-1.68059h5.29028l4.87716-.16468c4.59235-.16477,7.58786,1.5159,7.58786,5.86254,0,2.29485-.94355,4.75712-4.14294,5.53598l3.6488,5.08376,2.62422,.61418c.16468,.04183,.04192,1.64148-.04183,1.64148h-9.05912c-.08383,0-.2066-1.59965-.04192-1.64148l1.88438-.57235-3.48403-5.12559c-1.10832-.24562-1.92629-.57508-1.92629-.57508v5.65884l1.68059,.61418Zm-1.68059-8.07646h2.04915c2.21383,0,4.10102-.49133,4.10102-3.40309,0-2.54329-1.27301-3.28032-3.60688-3.23841l-2.54329,.03911v6.60239Z"/><path class="cls-1" d="M345.07504,322.45665c.16477,.04183,.04192,1.64148-.03902,1.64148h-8.5706c-.12285,0-.24571-1.55773-.12285-1.59965l2.50137-1.14734v-13.69619l-2.70797-.4495c-.16187-.04183-.03911-1.68059,.04192-1.68059h5.29028l4.87997-.16468c4.59235-.16477,7.58505,1.5159,7.58505,5.86254,0,2.29485-.94355,4.75712-4.14294,5.53598l3.6488,5.08376,2.62422,.61418c.16468,.04183,.04192,1.64148-.03911,1.64148h-9.06184c-.08102,0-.2066-1.59965-.04192-1.64148l1.88719-.57235-3.48684-5.12559c-1.10551-.24562-1.92629-.57508-1.92629-.57508v5.65884l1.68059,.61418Zm-1.68059-8.07646h2.04915c2.21664,0,4.10102-.49133,4.10102-3.40309,0-2.54329-1.27028-3.28032-3.60688-3.23841l-2.54329,.03911v6.60239Z"/><path class="cls-1" d="M371.65448,305.52367c.08094,0,.2066,1.59965,.04192,1.63876l-3.52875,.53325v14.43314l3.52875,.41039c.16468,0,.03902,1.55782-.04192,1.55782h-11.27576c-.12285,0-.24571-1.51599-.12285-1.55782l3.32215-1.27019v-13.53151l-3.52594-.53325c-.16468-.04183-.04183-1.68059,.03911-1.68059h11.5633Z"/><path class="cls-1" d="M387.35253,307.16388c-.16468-.04192-.04192-1.63876,.03911-1.63876h10.12833c.08375,0,.2066,1.59684,.04192,1.63876l-2.70797,.49133v14.34948l2.70797,.45222c.16468,.04192,.04183,1.64157-.04192,1.64157h-5.08368l-10.45506-11.85084h-.24562v9.75705l4.75431,.45222c.16468,.04192,.04183,1.64157-.03911,1.64157h-9.84079c-.12285,0-.24571-1.59965-.12285-1.64157l2.50137-1.27019v-13.53151l-2.70797-.49133c-.16187-.04192-.03911-1.63876,.04192-1.63876h5.70067l9.79896,11.3958h.28473v-9.26572l-4.75431-.49133Z"/><path class="cls-1" d="M401.5887,315.03595c0-5.00274,3.56786-10.12833,10.16744-10.12833,2.09098,0,3.56786,.36847,5.04466,1.27301l1.14734-1.84536c.08102-.12285,1.80353,.32664,1.80353,.49133l-.90172,7.42045c0,.16468-2.172,.24562-2.25575,.08375l-1.18926-2.3395c-.90172-1.76152-2.00723-2.66324-3.56505-2.66324-2.83082,0-5.12559,1.84527-5.12559,6.97086,0,5.32938,2.62422,7.74701,5.73977,7.74701l3.36126-.98266v-2.9927l-3.52594-.82078c-.16196-.04183-.12285-1.88719,.04183-1.88719h9.47232c.08094,0,.20379,1.59965,.03911,1.64148l-1.96821,.53325v6.27302c0,.12285-2.54039,.90172-2.62422,.73704l-.77887-1.55782s-2.86984,1.64157-5.49407,1.64157c-5.3713,0-9.38857-3.52594-9.38857-9.59517"/><path class="cls-1" d="M446.66627,314.42151c0,6.10825-4.14013,10.33212-10.3294,10.33212-5.98821,0-9.96365-2.70516-9.96365-9.75986,0-5.32938,4.30208-10.08642,10.49408-10.08642,5.3713,0,9.79896,2.66605,9.79896,9.51415m-10.16744,7.95361c2.78891,0,4.7152-.85989,4.7152-7.05189,0-6.2311-1.88719-7.99552-4.5086-7.99552-2.91176,0-4.87997,1.31211-4.87997,7.05189,0,6.10834,2.41762,7.99552,4.67337,7.99552"/><path class="cls-1" d="M450.77266,307.20486c-.16196-.04192-.04192-1.68059,.04192-1.68059h15.33486c.03911,1.84527-.16468,4.0591-.41039,5.82071,0,.12285-1.84527,.32945-1.88719,.16468l-1.02457-3.89442h-4.75703v5.86263h2.09098l.28754-1.7225c.04183-.12285,1.7225,.04183,1.7225,.16468v6.06923c0,.12285-1.18926,.32664-1.22836,.20379l-.73985-2.42043h-2.13281v5.86544l4.79895,.81797c.16468,.04183,.04183,1.64148-.04192,1.64148h-11.72517c-.12285,0-.24852-1.59965-.12285-1.64148l2.49856-1.27028v-13.48959l-2.70516-.49133Z"/><path class="cls-1" d="M484.5806,317.70115c.08094-.16468,1.68059,.28754,1.64157,.41039-.08375,1.88438-.37137,4.18196-.77895,5.9854h-14.51689c-.12285,0-.24571-1.59965-.12285-1.63867l2.50137-1.23117v-13.61244l-2.70516-.45222c-.16468-.03911-.04192-1.63876,.03911-1.63876h15.33486c.04192,1.84536-.16187,4.05919-.40758,5.82352,0,.12004-1.84808,.32664-1.88719,.16196l-1.18926-3.8945h-4.59243v5.86263h1.76442l.28473-1.96812c.04192-.12285,1.7225,.04183,1.7225,.16468v6.06923c0,.12277-1.18926,.32656-1.23117,.20379l-.73695-2.172h-1.80353v6.15017h4.42766l2.25575-4.22387Z"/><path class="cls-1" d="M501.70927,307.16388c-.16468-.04192-.04192-1.63876,.03911-1.63876h10.12833c.08375,0,.2066,1.59684,.04192,1.63876l-2.70525,.49133v14.34948l2.70525,.45222c.16468,.04192,.04183,1.64157-.04192,1.64157h-5.08368l-10.45506-11.85084h-.24562v9.75705l4.75431,.45222c.16468,.04192,.04183,1.64157-.03911,1.64157h-9.84079c-.12285,0-.24571-1.59965-.12285-1.64157l2.50137-1.27019v-13.53151l-2.70797-.49133c-.16187-.04192-.03911-1.63876,.04192-1.63876h5.70067l9.79896,11.3958h.28473v-9.26572l-4.75431-.49133Z"/></svg>