<?xml version="1.0" encoding="UTF-8"?><svg xmlns="http://www.w3.org/2000/svg" viewBox="0 0 512 512"><defs><style>.cls-1{fill:#00354e;}.cls-2{fill:#fff;}.cls-3{fill:#95bb20;}</style></defs><g id="Layer_2"><circle class="cls-2" cx="256" cy="256" r="256"/></g><g id="Layer_1"><g><path class="cls-3" d="M378.39198,197.19396c0-23.45257,19.01363-42.46645,42.46645-42.46645,.04143,0,.0915,.01677,.14157,.01677v-63.74543h-67.1268c0,28.14187-22.81983,50.95293-50.96145,50.95293s-50.95306-22.81107-50.95306-50.95293h-65.20305v212.39072h66.0109c3.86428-24.31062,24.75185-42.94123,50.1452-42.94123,25.40161,0,46.28079,18.6306,50.15346,42.94123h67.93479v-63.74543c-.05007,0-.10014,.01677-.14157,.01677-23.45283,0-42.46645-19.01388-42.46645-42.46696"/><path class="cls-1" d="M252.8231,320.00925H95.74966c5.39676,6.48826,80.53552,99.55791,81.74304,100.9985h156.99859s76.15465-94.51025,81.54314-100.9985h-63.0292c-4.10599,24.02749-24.89354,42.35869-50.09526,42.35869-25.19333,0-45.98101-18.3312-50.08687-42.35869"/><rect class="cls-3" x="91" y="90.99225" width="79.36129" height="212.39885"/></g></g></svg>