<?xml version="1.0" encoding="utf-8"?>
<!-- Generator: Adobe Illustrator 26.5.0, SVG Export Plug-In . SVG Version: 6.00 Build 0)  -->
<svg version="1.1" xmlns="http://www.w3.org/2000/svg" xmlns:xlink="http://www.w3.org/1999/xlink" x="0px" y="0px"
	 viewBox="0 0 513 513" style="enable-background:new 0 0 513 513;" xml:space="preserve">
<style type="text/css">
	.st0{fill:#FFFFFF;}
	.st1{fill:#184669;}
</style>
<g id="Layer_2">
	<circle class="st0" cx="256.5" cy="256.5" r="256"/>
	<path class="st1" d="M424.3,183.2c0,1.8-1.8,3.5-3.5,3.5c-1.8,0-3.5-1.8-3.5-3.5c0-1.8,1.8-3.5,3.5-3.5
		C422.5,179.6,424.3,181,424.3,183.2 M446.3,201.2c-1.8-4.8-24.2-33-24.2-33L397.4,155c0,0-7.9-15.8-11-18.5
		c-2.2-2.6-3.1-6.2-4.8-6.2c-2.2,0-4.4,18.5-3.5,23.3c0.9,4.8,14.5,20.7,14.5,20.7s-15,15.4-24.2,19.4c-9.2,4-41.8,12.8-67.7,10.6
		c-25.9-2.2-49.3,4.4-64.2,19.4c-11.9,11.9-18,24.2-25.1,43.1c-7.5,9.7-25.5,35.6-61.1,34.8c-47.1-2.2-79.2-30.3-79.2-30.3
		c-20.2,0,29.9,47.9,79.2,51.5c32.1,2.2,58.9-3.5,84-24.2l22.4,2.6c0,0-0.4,11.4-2.6,15.4c-1.8,4-7.5,15-4.8,18
		c1.8,2.2,53.7,46.6,62.5,47.5s32.5,1.3,33.4-1.3c1.3-5.7-21.5-7-26.8-8.4c-5.7-1.3-43.1-43.1-42.2-45.3
		c0.9-2.2,10.6-12.3,10.6-12.3l5.3-17.6c0,0,25.5-5.3,38.7-17.6c13.2-12.3,31.2-33,31.2-33s10.6,9.2,10.6,15.8
		c0,6.6,0.4,19.4,3.5,19.8c7,1.8,9.2-19.4,8.8-25.1c-0.9-5.7-12.8-19.4-11.4-22.4c1.8-3.1,18.9-13.6,23.7-19.8
		c4.8-6.6,13.6-13.6,13.6-13.6l7,0.9c0,0,14.1,9.7,16.3,10.1C439.7,213.1,448,206,446.3,201.2"/>
</g>
<g id="Layer_1">
</g>
</svg>
