<?xml version="1.0" encoding="utf-8"?>
<!-- Generator: Adobe Illustrator 26.5.0, SVG Export Plug-In . SVG Version: 6.00 Build 0)  -->
<svg version="1.1" xmlns="http://www.w3.org/2000/svg" xmlns:xlink="http://www.w3.org/1999/xlink" x="0px" y="0px"
	 viewBox="0 0 512 512" style="enable-background:new 0 0 512 512;" xml:space="preserve">
<style type="text/css">
	.st0{fill:#FFFFFF;}
	.st1{fill:#E40521;}
	.st2{fill:#211B1C;}
</style>
<g id="Layer_2">
	<rect x="32.8" y="-25.8" class="st0" width="1" height="0"/>
</g>
<g id="Ebene_1">
	<g>
		<path class="st1" d="M400.9,194.2l10.1-67.9H261.8c-34.5,0-139.3,2.7-159.7,138.8c-10.3,68.8,54.1,119.5,113.2,120.5
			c74,1.2,120.4-33.8,146.1-92.2c13-29.5,18.1-82.1,18.1-82.1h-73.7c0,0,0,47.2-26.7,81.5c-8.7,11.2-26.3,26.8-56.7,26.3
			c-22-0.3-39.4-12.4-37.4-47.4c2.2-38.8,30.8-77.7,65.6-77.7L400.9,194.2L400.9,194.2z"/>
	</g>
	<g>
		<path class="st2" d="M-336.7,297.7l1-6.1l-7.7,0c-4.6,0-9,3-9.3,8c-0.1,2.2,0.1,4,2.8,5.4c1.6,0.8,4.4,0.9,4.7,1.6
			c0.1,0.2,0.1,0.4,0.1,0.6c-0.1,1.1-2.5,1-2.5,1h-7.8l-1.1,5.9h10.2c2.5,0,6-1.2,7.8-4.3c1.3-2.1,1.8-3.8,1.2-6.2
			c-0.7-3-3.4-3.4-6.1-3.9c-0.5-0.1-1.6-0.2-1.5-1.1c0.1-0.8,1.2-0.9,1.7-0.9H-336.7L-336.7,297.7z"/>
		<path class="st2" d="M-233.4,297.7l1-6.1h-7.7c-4.6,0-9.1,3-9.3,8c-0.1,2.2,0.1,4,2.8,5.4c1.6,0.8,4.4,0.9,4.7,1.6
			c0.1,0.2,0.1,0.4,0.1,0.6c-0.2,1.1-2.5,1-2.5,1h-7.8l-1.1,5.9h10.2c2.5,0,6-1.2,7.8-4.2c1.3-2.1,1.8-3.8,1.2-6.2
			c-0.7-3-3.4-3.4-6.1-3.9c-0.5-0.1-1.6-0.2-1.4-1.1c0.1-0.8,1.2-0.9,1.7-0.9H-233.4L-233.4,297.7z"/>
		<path class="st1" d="M-302.2,297.7l0.9-6.1h-13.3c-3.1,0-12.4,0.2-14.3,12.4c-0.9,6.1,4.8,10.7,10.1,10.8c6.6,0.1,10.8-3,13-8.2
			c1.2-2.6,1.6-7.3,1.6-7.3h-6.6c0,0,0,4.2-2.4,7.3c-0.8,1-2.4,2.4-5.1,2.4c-2,0-3.5-1.1-3.3-4.2c0.2-3.5,2.8-6.9,5.9-6.9
			L-302.2,297.7L-302.2,297.7z"/>
		<polygon class="st2" points="-334.1,291.6 -327.6,291.6 -331.2,314.1 -337.7,314.1 		"/>
		<path class="st2" d="M-303.7,314.1l3.5-22.5h7.8l3.7,11.9l0.1,0.4l0.2-0.4l6.4-11.9h10.3l-3.1,21.1l0.2-0.2l9.9-20.9h8.3l4.3,22.5
			h-8.3l-0.2-2.5h-5.8l-1,2.5h-14.9l1.7-11v-0.2l-0.1,0.1l-6.3,11h-4.7l-2.6-11.2l-0.1-0.2l-0.1,0.2l-1.7,11.2L-303.7,314.1
			L-303.7,314.1z M-264.1,305.7h3.1l-0.5-6.6l0-0.3l-0.1,0.3L-264.1,305.7L-264.1,305.7z"/>
		<path class="st2" d="M-221.2,291c6.1,0,9.8,3,9.8,9.9c0,7.6-4.8,13.7-12.1,13.7c-6.1,0-9.8-3.4-9.8-9.9
			C-233.3,297.2-228.6,291-221.2,291L-221.2,291z M-223.3,309c4,0,5.3-4.9,5.3-8.3c0-2-0.8-4.1-3.4-4.1c-4,0-5.3,4.9-5.3,8.3
			C-226.7,307-225.9,309-223.3,309L-223.3,309z"/>
		<polygon class="st2" points="-208.5,291.6 -191.9,291.6 -193,297.4 -203,297.4 -203.6,300.2 -195.1,300.2 -196.2,305.5 
			-204.7,305.5 -206.4,314.1 -213,314.1 		"/>
		<polygon class="st2" points="-186.1,297.4 -192.1,297.4 -190.9,291.6 -172.3,291.6 -173.4,297.4 -179.4,297.4 -182.8,314.1 
			-189.4,314.1 		"/>
		<path class="st2" d="M-167,299.6c-2.9,0-4.9-2.2-4.9-5.2c0-3.1,2.3-5.2,4.9-5.2c2.6,0,4.9,2.1,4.9,5.2
			C-162.1,297.5-164.4,299.6-167,299.6L-167,299.6z M-167,290.1c-2.2,0-3.9,1.8-3.9,4.3c0,2.4,1.5,4.3,3.9,4.3
			c2.1,0,3.8-1.8,3.8-4.3C-163.2,291.8-164.9,290.1-167,290.1L-167,290.1z M-168,297.4h-0.9v-5.8h2.1c1.3,0,2,0.5,2,1.7
			c0,1-0.6,1.5-1.4,1.6l1.6,2.5h-1l-1.4-2.5h-0.9V297.4L-168,297.4z M-167,294.1c0.7,0,1.3-0.1,1.3-0.9c0-0.7-0.7-0.8-1.2-0.8h-1.1
			v1.7H-167L-167,294.1z"/>
		<path class="st2" d="M-265.2,327.8l2.8-8.9h-2.4l-0.9,3.5c-0.2,0.9-0.5,2-0.7,3.1h0c-0.2-1.1-0.4-2.1-0.7-3.1l-0.9-3.5h-2.5
			l2.7,8.9L-265.2,327.8L-265.2,327.8z M-259.4,327.8v-6.5h-2.3v6.5H-259.4L-259.4,327.8z M-260.6,318.4c-0.7,0-1.2,0.5-1.2,1.1
			c0,0.6,0.4,1.1,1.1,1.1c0.7,0,1.2-0.5,1.2-1.1C-259.4,318.9-259.8,318.4-260.6,318.4L-260.6,318.4z M-258.1,327.8h2.3v-3.2
			c0-0.2,0-0.3,0-0.4c0.1-0.5,0.6-0.8,1.2-0.8c0.2,0,0.4,0,0.6,0.1v-2.2c-0.2,0-0.2,0-0.5,0c-0.5,0-1.3,0.3-1.7,1.3h-0.1l-0.1-1.2
			h-2c0,0.5,0.1,1.2,0.1,2.2L-258.1,327.8L-258.1,327.8z M-252.6,320.1v1.2h-0.8v1.7h0.8v2.3c0,1,0.2,1.6,0.6,2
			c0.3,0.3,0.9,0.6,1.6,0.6c0.6,0,1.1-0.1,1.4-0.2V326c-0.2,0.1-0.3,0.1-0.5,0.1c-0.5,0-0.7-0.3-0.7-1.1v-1.9h1.3v-1.7h-1.3v-1.8
			L-252.6,320.1L-252.6,320.1z M-241.9,321.3h-2.3v3.8c0,0.1,0,0.2-0.1,0.3c-0.1,0.2-0.3,0.5-0.7,0.5c-0.5,0-0.8-0.4-0.8-1.3v-3.4
			h-2.3v3.8c0,1.9,0.8,2.8,2.2,2.8c1.1,0,1.7-0.6,1.9-1h0.1l0.1,0.9h2c0-0.5-0.1-1.3-0.1-2.2L-241.9,321.3L-241.9,321.3z
			 M-235,324.1c0-1.6-0.8-2.9-2.9-2.9c-1.3,0-2.2,0.4-2.6,0.6l0.4,1.5c0.4-0.2,1.1-0.5,1.8-0.5c0.8,0,1,0.3,1,0.6v0
			c-2.1,0-3.6,0.8-3.6,2.5c0,1.1,0.8,2,2.1,2c0.7,0,1.3-0.2,1.7-0.7h0l0.1,0.6h2.1c-0.1-0.3-0.1-0.9-0.1-1.6L-235,324.1L-235,324.1z
			 M-237.2,325.4c0,0.1,0,0.2,0,0.3c-0.1,0.4-0.5,0.6-0.8,0.6c-0.4,0-0.6-0.2-0.6-0.6c0-0.6,0.5-0.8,1.4-0.8V325.4L-237.2,325.4z
			 M-233.6,327.8h2.3v-9.4h-2.3V327.8L-233.6,327.8z M-220.1,327.8h2.2l-0.4-8.9h-3l-0.6,2.4c-0.2,0.9-0.5,2.2-0.8,3.3h-0.1
			c-0.2-1.1-0.4-2.3-0.7-3.2l-0.6-2.4h-3.1l-0.5,8.9h2.1l0.1-3.2c0-1,0.1-2.3,0.1-3.6h0c0.2,1.2,0.5,2.5,0.7,3.5l0.7,3.1h1.8
			l0.9-3.1c0.3-1,0.6-2.3,0.9-3.5h0c0,1.4,0,2.6,0,3.6L-220.1,327.8L-220.1,327.8z M-213.4,321.2c-2.1,0-3.4,1.4-3.4,3.4
			c0,2.1,1.4,3.3,3.3,3.3c1.7,0,3.4-1.1,3.4-3.4C-210.2,322.6-211.5,321.2-213.4,321.2L-213.4,321.2z M-213.5,322.9
			c0.7,0,1,0.8,1,1.7c0,1-0.3,1.7-0.9,1.7c-0.7,0-1-0.8-1-1.7C-214.5,323.7-214.3,322.9-213.5,322.9L-213.5,322.9z M-209.1,327.8
			h2.3v-9.4h-2.3V327.8L-209.1,327.8z M-201.5,318.5v3.3h0c-0.3-0.4-0.9-0.6-1.5-0.6c-1.5,0-2.8,1.2-2.8,3.4c0,2,1.2,3.3,2.6,3.3
			c0.7,0,1.5-0.3,1.9-1h0l0.1,0.9h2c0-0.4-0.1-1.2-0.1-2v-7.3L-201.5,318.5L-201.5,318.5z M-201.5,324.9c0,0.1,0,0.3,0,0.4
			c-0.1,0.4-0.4,0.8-0.9,0.8c-0.6,0-1.1-0.5-1.1-1.5c0-0.9,0.3-1.6,1.1-1.6c0.5,0,0.8,0.4,0.9,0.8c0,0.1,0,0.2,0,0.3V324.9
			L-201.5,324.9z M-195.5,327.8v-6.5h-2.3v6.5H-195.5L-195.5,327.8z M-196.7,318.4c-0.7,0-1.2,0.5-1.2,1.1c0,0.6,0.4,1.1,1.1,1.1
			c0.7,0,1.2-0.5,1.2-1.1C-195.5,318.9-196,318.4-196.7,318.4L-196.7,318.4z M-194.2,327.8h2.3v-3.7c0-0.2,0-0.4,0.1-0.5
			c0.1-0.2,0.3-0.6,0.8-0.6c0.5,0,0.8,0.4,0.8,1.2v3.5h2.3V324c0-1.8-0.8-2.8-2.2-2.8c-1,0-1.6,0.6-1.9,1h-0.1l-0.1-0.8h-2
			c0,0.6,0.1,1.3,0.1,2.2L-194.2,327.8L-194.2,327.8z M-180.6,323.3c0-1,0-1.6,0.1-2h-2l-0.1,0.7h0c-0.3-0.5-0.9-0.8-1.6-0.8
			c-1.6,0-2.8,1.4-2.8,3.4c0,1.9,1.1,3.1,2.6,3.1c0.6,0,1.2-0.2,1.6-0.7h0v0.3c0,1-0.6,1.5-1.4,1.5c-0.7,0-1.4-0.2-1.8-0.5l-0.4,1.8
			c0.6,0.3,1.4,0.5,2.3,0.5c1,0,1.9-0.2,2.6-0.8c0.8-0.7,1-1.8,1-2.9L-180.6,323.3L-180.6,323.3z M-182.8,324.9c0,0.1,0,0.4,0,0.5
			c-0.1,0.4-0.4,0.6-0.8,0.6c-0.6,0-1-0.6-1-1.5c0-1,0.5-1.6,1-1.6c0.4,0,0.7,0.3,0.8,0.7c0,0.1,0,0.2,0,0.3V324.9L-182.8,324.9z"/>
	</g>
</g>
</svg>
