<?xml version="1.0" encoding="UTF-8"?><svg xmlns="http://www.w3.org/2000/svg" viewBox="0 0 512 512"><defs><style>.cls-1,.cls-2{fill:none;stroke:#181716;stroke-width:15.1112px;}.cls-3{fill:#fff;}.cls-4{fill:#181716;}.cls-2{stroke-miterlimit:3.864;}</style></defs><g id="Layer_2"><circle class="cls-3" cx="256" cy="256" r="256"/></g><g id="Layer_1"><g><path class="cls-2" d="M354.09665,240.92304c0-48.94798-195.76865-48.94798-195.76865,0,0,48.94244,48.94207,97.88452,97.87824,97.88452,48.94816,0,97.89041-48.94208,97.89041-97.88452Z"/><path class="cls-2" d="M78.49245,217.98434c-.71332-.52572-1.46279-.79762-2.21835-.79762-6.66114,0-12.05889,20.84136-12.05889,46.56066,0,25.71303,5.39775,46.55439,12.05889,46.55439,.75556,0,1.50503-.2719,2.21835-.79171,4.63002,15.90919,11.59331,26.02772,19.39664,26.02772,13.90223,0,14.57331-32.14488,14.57331-71.79039,0-39.65806-.67108-71.79039-14.57331-71.79039-7.80333,0-14.76663,10.11853-19.39664,26.02735Z"/><path class="cls-2" d="M433.92612,217.98434c.72531-.52572,1.46869-.79762,2.23643-.79762,6.66096,0,12.05262,20.84136,12.05262,46.56066,0,25.71303-5.39167,46.55439-12.05262,46.55439-.76773,0-1.51112-.2719-2.23643-.79171-4.60604,15.90919-11.58132,26.02772-19.39074,26.02772-13.89024,0-14.56113-32.14488-14.56113-71.79039,0-39.65806,.67089-71.79039,14.56113-71.79039,7.80942,0,14.7847,10.11853,19.39074,26.02735Z"/><path class="cls-4" d="M404.53195,202.0567c2.15895-6.37319,5.31585-10.09971,10.00342-10.09971,3.53136,0,6.87567,2.16006,9.92374,5.89765-13.6521-92.06508-99.86085-120.80256-170.96097-120.80256-72.44117,0-154.73893,24.64388-165.05594,120.2477,2.92115-3.38453,6.09834-5.34278,9.44708-5.34278,4.5175,0,7.62127,3.43691,9.77543,9.3781l3.31664-2.73485c0-85.58379,81.55216-100.95472,142.51679-100.95472,60.95872,0,147.94479,15.73358,147.94479,101.31147l3.08902,3.09972Z"/><path class="cls-4" d="M267.40074,239.97417c-16.25967-6.17139-34.44771,2.00069-40.63091,18.26626-6.16549,16.26557,2.01249,34.44735,18.27216,40.61284,16.25967,6.18947,34.43554-1.98851,40.6132-18.25445,6.1832-16.27148-1.99478-34.45325-18.25445-40.62464Zm-22.03815,41.63439c-.6589,1.73506-2.58728,2.60535-4.31606,1.94645-1.72251-.64673-2.59281-2.58691-1.94018-4.31569,.6589-1.72251,2.59318-2.58691,4.31569-1.93428,1.72879,.653,2.59318,2.58691,1.94055,4.30352Zm35.43865-16.64667c-2.84073,7.45304-11.17624,11.21867-18.64108,8.38974-7.46485-2.82855-11.23084-11.19432-8.38974-18.65916,2.83483-7.45894,11.19432-11.2124,18.65916-8.37757,7.45304,2.82892,11.19432,11.18841,8.37167,18.64699Z"/><path class="cls-1" d="M191.59072,386.26324c18.53225,15.86676,41.56171,26.05207,64.59725,26.05207s46.065-10.18531,64.59135-26.05207"/></g></g></svg>