<?xml version="1.0" encoding="UTF-8"?><svg xmlns="http://www.w3.org/2000/svg" viewBox="0 0 512 512"><defs><style>.cls-1{fill:#fff;}.cls-2{fill:#92094c;}</style></defs><g id="Layer_2"><rect class="cls-2" x="0" y="0" width="512" height="512" rx="255.99974" ry="255.99974"/></g><g id="Layer_1"><g><path class="cls-1" d="M256.18589,54c-29.50605,0-53.42003,23.91398-53.42003,53.42003,0,25.61988,18.04644,47.00176,42.10564,52.196l5.99758-76.52298h10.61063l6.01287,76.52298c24.05931-5.19425,42.11334-26.57613,42.11334-52.196,0-29.50605-23.92157-53.42003-53.42003-53.42003"/><path class="cls-1" d="M221.75011,402.64929c1.9125-6.57143,3.94745-13.57872,6.79321-19.70634,2.83817-6.19649,3.72555-11.9954,4.72009-20.17326,1.03271,8.1167,1.27749,16.27938,.4284,23.60045-.89508,7.35165,.62731,12.17866,1.23932,17.91617,.28295,2.64697,.68847,5.23277,1.15504,7.74946,.89508-1.91997,1.79776-3.87076,2.66996-5.75268,2.83047-6.20419,4.69709-13.44868,5.69152-21.62655,.84151,6.66318,1.00224,13.03546,.62731,19.17078,1.75959-4.42173,3.74084-8.78976,5.69163-12.9897,2.83817-6.21166,4.7048-13.44868,5.69163-21.63425,1.03271,8.1321,1.30049,15.91215,.45898,23.22551-.89508,7.35165-1.56827,13.4181-.96396,19.15561,.46669,4.39114,1.2852,8.57568,2.27973,12.59189,.54314-2.16487,1.0787-4.29169,1.70601-6.50255,1.9125-6.57119,5.14837-12.982,7.99425-19.10962,2.83817-6.2119,4.69709-13.44868,5.69163-21.63425,1.03271,8.13187,1.30049,15.90445,.45898,23.22551-.15303,1.20862-.20661,2.17258-.33665,3.29715,1.85134-4.88071,4.04691-9.70796,6.20419-14.32859,2.83047-6.21166,4.69709-13.45639,5.69163-21.63425,1.03271,8.1244,1.30049,15.90445,.45128,23.22551-.88738,7.35165-1.56827,13.4104-.95625,19.1479,.37494,3.57263,.99454,6.99982,1.7213,10.32756,.56614-1.19345,1.12458-2.42495,1.66772-3.60322,2.83817-6.21166,4.70468-13.44868,5.69922-21.63425,1.02512,8.1244,1.30049,15.90445,.45139,23.22551-.88738,7.35165-1.56827,13.4104-.95625,19.1479,.01529,.22949,.06117,.45898,.09945,.6733,9.50893-9.67737,15.40706-22.93485,15.40706-37.59216,0-29.65149-24.04391-53.69551-53.7031-53.69551s-53.70298,24.04402-53.70298,53.69551c0,14.04541,5.50802,26.70616,14.32077,36.27638,.13774-11.82684,2.31802-22.47587,5.60747-34.03493"/><path class="cls-1" d="M256.46733,199.89415c-29.65908,0-53.6954,24.05173-53.6954,53.70322,0,29.66667,24.03632,53.71069,53.6954,53.71069s53.71081-24.04402,53.71081-53.71069c0-29.65149-24.05161-53.70322-53.71081-53.70322m37.61515,66.84584l-62.69177,8.80517-12.52313-6.80092,.05358-25.5356,62.69177-8.80517,12.52313,6.80839-.05358,25.52813Z"/></g></g></svg>